SplineFontDB: 3.2
FontName: DSESeriesB
FullName: DSE Series B
FamilyName: DSE Series B
Weight: Regular
Copyright: Copyright (c) 2022, Darren Embry
UComments: "2022-5-7: Created with FontForge (http://fontforge.org)"
Version: 001.000
ItalicAngle: 0
UnderlinePosition: -144
UnderlineWidth: 72
Ascent: 960
Descent: 192
InvalidEm: 0
LayerCount: 2
Layer: 0 0 "Back" 1
Layer: 1 0 "Fore" 0
XUID: [1021 323 -1642646731 11131862]
OS2Version: 0
OS2_WeightWidthSlopeOnly: 0
OS2_UseTypoMetrics: 1
CreationTime: 1651977848
ModificationTime: 1657479934
OS2TypoAscent: 0
OS2TypoAOffset: 1
OS2TypoDescent: 0
OS2TypoDOffset: 1
OS2TypoLinegap: 0
OS2WinAscent: 0
OS2WinAOffset: 1
OS2WinDescent: 0
OS2WinDOffset: 1
HheadAscent: 0
HheadAOffset: 1
HheadDescent: 0
HheadDOffset: 1
OS2Vendor: 'PfEd'
Lookup: 258 0 0 "kern" { "kern-1" [172,0,2] } ['kern' ('DFLT' <'dflt' > 'latn' <'dflt' > ) ]
MarkAttachClasses: 1
DEI: 91125
KernClass2: 21 21 "kern-1"
 32 zero three eight B D O Q b d o q
 27 one H I J M N U h i j m n u
 3 two
 4 four
 4 five
 11 six G S g s
 5 seven
 4 nine
 3 A a
 3 C c
 3 E e
 3 F f
 7 K X k x
 3 L l
 3 P p
 3 R r
 3 T t
 11 V W Y v w y
 3 Z z
 5 slash
 26 zero eight C G O Q c g o q
 3 one
 3 two
 5 three
 4 four
 4 five
 3 six
 5 seven
 4 nine
 3 A a
 47 B D E F H I K L M N P R b d e f h i k l m n p r
 3 J j
 3 S s
 3 T t
 3 U u
 11 V W Y v w y
 3 X x
 3 Z z
 6 period
 5 slash

StartChar: A
Encoding: 65 65 0
Width: 408
Flags: HW
LayerCount: 2
Fore
SplineSet
310.041015625 0 m 1
 268.603515625 204 l 1
 139.396484375 204 l 1
 97.95703125 0 l 1
 0 0 l 1
 156 768 l 1
 252 768 l 1
 408 0 l 1
 310.041015625 0 l 1
249 300.509765625 m 1
 158.896484375 300 l 1
 204 522.048828125 l 1
 249 300.509765625 l 1
156 768 m 1
 252 768 l 1
 156 768 l 1
EndSplineSet
EndChar

StartChar: B
Encoding: 66 66 1
Width: 324
Flags: HW
LayerCount: 2
Fore
SplineSet
305.999023438 482.82421875 m 4
 303.336914062 464.918945312 297.322265625 447.676757812 288.271484375 432 c 4
 283.755859375 424.177734375 278.513671875 416.797851562 272.62109375 409.938476562 c 5
 279.952148438 402.021484375 286.366210938 393.327148438 291.751953125 384 c 4
 298.263671875 372.720703125 303.215820312 360.611328125 306.471679688 348.001953125 c 4
 325.637695312 273.771484375 329.131835938 196.361328125 316.729492188 120.705078125 c 4
 313.91796875 103.552734375 308.024414062 87.05078125 299.333984375 71.9990234375 c 4
 273.610351562 27.4453125 226.072265625 -0.0009765625 174.625976562 -0.0009765625 c 6
 0 0 l 5
 0 768 l 5
 163.564453125 768 l 6
 215.010742188 768 262.548828125 740.553710938 288.271484375 696 c 4
 297.322265625 680.323242188 303.336914062 663.081054688 305.999023438 645.17578125 c 4
 314 591.354492188 314 536.645507812 305.999023438 482.82421875 c 4
211.041992188 496.94140625 m 4
 210.155273438 490.97265625 208.150390625 485.225585938 205.133789062 480 c 4
 196.55859375 465.1484375 180.712890625 456 163.564453125 456 c 6
 96 456 l 5
 96 672 l 5
 163.564453125 672 l 6
 180.712890625 672 196.55859375 662.8515625 205.133789062 648 c 4
 208.150390625 642.774414062 210.155273438 637.02734375 211.041992188 631.05859375 c 4
 217.65234375 586.596679688 217.65234375 541.40234375 211.041992188 496.94140625 c 4
208.61328125 336 m 4
 210.784179688 332.241210938 212.434570312 328.205078125 213.51953125 324.000976562 c 4
 229.353515625 262.678710938 232.239257812 198.732421875 221.994140625 136.234375 c 4
 221.056640625 130.516601562 219.091796875 125.016601562 216.1953125 119.999023438 c 4
 207.62109375 105.147460938 191.775390625 95.9990234375 174.625976562 95.9990234375 c 6
 96 96 l 5
 96 360 l 5
 167.043945312 360 l 6
 184.193359375 360 200.0390625 350.8515625 208.61328125 336 c 4
EndSplineSet
EndChar

StartChar: V
Encoding: 86 86 2
Width: 354
Flags: HW
LayerCount: 2
Fore
SplineSet
256.524414062 768 m 5
 354 768 l 5
 219 1.2001953125 l 5
 135 1.2001953125 l 5
 0 768 l 5
 97.4755859375 768 l 5
 177 316.301757812 l 5
 256.524414062 768 l 5
EndSplineSet
EndChar

StartChar: S
Encoding: 83 83 3
Width: 324
Flags: HW
LayerCount: 2
Fore
SplineSet
324 600 m 5
 228 600 l 5
 228 627 l 6
 228 658.48046875 202.48046875 684 171 684 c 4
 139.520507812 684 114 658.48046875 114 627 c 4
 114 569.008789062 138.653320312 513.624023438 182.065429688 474.0859375 c 4
 272.591796875 390.287109375 323.999023438 272.905273438 324 150 c 4
 324 92.123046875 293.123046875 38.642578125 243 9.7041015625 c 4
 192.876953125 -19.234375 131.123046875 -19.234375 81 9.7041015625 c 4
 30.876953125 38.642578125 0 92.123046875 0 150 c 6
 0 192 l 5
 96 192 l 5
 96 149.868164062 l 6
 96 126.420898438 108.579101562 104.631835938 129 92.8427734375 c 4
 149.419921875 81.052734375 174.579101562 81.052734375 195 92.8427734375 c 4
 215.419921875 104.631835938 228 126.420898438 228 150 c 4
 227.999023438 246.274414062 187.654296875 338.221679688 116.608398438 403.862304688 c 4
 53.7158203125 461.55859375 18.0009765625 542.377929688 18 627 c 4
 18 711.499023438 86.5 780 171 780 c 4
 255.5 780 324 711.5 324 627 c 4
 324 618 324 609 324 600 c 5
EndSplineSet
EndChar

StartChar: C
Encoding: 67 67 4
Width: 324
Flags: HW
LayerCount: 2
Fore
SplineSet
324 628.9140625 m 4
 324 712.356445312 256.356445312 780 172.9140625 780 c 4
 99.779296875 780 37.1455078125 727.618164062 24.2099609375 655.63671875 c 4
 -8.0703125 475.983398438 -8.0703125 292.013671875 24.2099609375 112.361328125 c 4
 32.078125 68.578125 58.84375 30.4853515625 97.37109375 8.2412109375 c 4
 144.1171875 -18.7470703125 201.7109375 -18.7470703125 248.45703125 8.2412109375 c 4
 295.203125 35.23046875 324 85.1083984375 324 139.0859375 c 6
 324 180 l 5
 228 180 l 5
 228.000976562 139.0859375 l 6
 228.000976562 119.405273438 217.500976562 101.220703125 200.45703125 91.3798828125 c 4
 183.413085938 81.5400390625 162.4140625 81.5400390625 145.370117188 91.3798828125 c 4
 131.32421875 99.4892578125 121.565429688 113.376953125 118.696289062 129.338867188 c 4
 88.4345703125 297.763671875 88.4345703125 470.233398438 118.696289062 638.658203125 c 4
 123.413085938 664.90234375 146.25 684 172.9140625 684 c 4
 203.336914062 684 228 659.336914062 228 628.9140625 c 1028
228 628.9140625 m 5
 324 628.9140625 l 1029
EndSplineSet
EndChar

StartChar: D
Encoding: 68 68 5
Width: 324
Flags: HW
LayerCount: 2
Fore
SplineSet
304.731445312 141.470703125 m 4
 301.104492188 118.793945312 292.868164062 97.1015625 280.529296875 77.7333984375 c 4
 249.682617188 29.3154296875 196.248046875 0 138.838867188 0 c 6
 0 0 l 5
 0 768 l 5
 138.83984375 768 l 6
 198.860351562 768 254.321289062 735.979492188 284.33203125 684 c 4
 294.581054688 666.248046875 301.495117188 646.770507812 304.731445312 626.529296875 c 4
 330.422851562 465.86328125 330.422851562 302.135742188 304.731445312 141.470703125 c 4
206.498046875 624.625 m 4
 208.0625 620.327148438 209.213867188 615.888671875 209.936523438 611.37109375 c 4
 234.021484375 460.747070312 234.021484375 307.252929688 209.935546875 156.62890625 c 4
 209.015625 150.877929688 207.401367188 145.259765625 205.12890625 139.897460938 c 4
 193.846679688 113.28515625 167.744140625 96 138.838867188 96 c 6
 96 96 l 5
 96 672 l 5
 138.83984375 672 l 6
 169.108398438 672 196.145507812 653.068359375 206.498046875 624.625 c 4
EndSplineSet
EndChar

StartChar: E
Encoding: 69 69 6
Width: 288
Flags: HW
LayerCount: 2
Fore
SplineSet
288 0 m 5
 0 0 l 5
 0 768 l 5
 282 768 l 5
 282 672 l 5
 96 672 l 5
 96 468 l 5
 216 468 l 5
 216 372 l 5
 96 372 l 5
 96 96 l 5
 288 96 l 5
 288 0 l 5
EndSplineSet
EndChar

StartChar: F
Encoding: 70 70 7
Width: 288
Flags: HW
LayerCount: 2
Fore
SplineSet
0 768 m 5
 288 768 l 5
 288 672 l 5
 96 672 l 5
 96 468 l 5
 204 468 l 5
 204 372 l 5
 96 372 l 5
 96 0 l 5
 0 0 l 5
 0 768 l 5
EndSplineSet
EndChar

StartChar: G
Encoding: 71 71 8
Width: 324
Flags: HW
LayerCount: 2
Fore
SplineSet
172.9140625 780 m 4
 256.356445312 780 324 712.356445312 324 628.9140625 c 5
 228 628.9140625 l 5
 228 659.336914062 203.336914062 684 172.9140625 684 c 4
 146.25 684 123.413085938 664.90234375 118.696289062 638.658203125 c 4
 88.4345703125 470.234375 88.4345703125 297.763671875 118.696289062 129.338867188 c 4
 121.565429688 113.376953125 131.32421875 99.4892578125 145.370117188 91.3798828125 c 4
 162.4140625 81.5400390625 183.413085938 81.5400390625 200.458007812 91.3798828125 c 4
 217.501953125 101.220703125 228.000976562 119.40625 228.000976562 139.0859375 c 6
 228 288 l 5
 180 288 l 5
 180 384 l 5
 324 384 l 5
 324 139.0859375 l 6
 324 85.1083984375 295.203125 35.23046875 248.45703125 8.2421875 c 4
 201.7109375 -18.7470703125 144.1171875 -18.7470703125 97.37109375 8.2421875 c 4
 58.84375 30.4853515625 32.078125 68.578125 24.2099609375 112.361328125 c 4
 -8.0703125 292.013671875 -8.0703125 475.983398438 24.2099609375 655.63671875 c 4
 37.1455078125 727.618164062 99.779296875 780 172.9140625 780 c 4
EndSplineSet
EndChar

StartChar: H
Encoding: 72 72 9
Width: 324
Flags: HW
LayerCount: 2
Fore
SplineSet
0 0 m 5
 0 768 l 5
 96 768 l 5
 96 456 l 5
 228 456 l 5
 228 768 l 5
 324 768 l 5
 324 0 l 5
 228 0 l 5
 228 360 l 5
 96 360 l 5
 96 0 l 5
 0 0 l 5
EndSplineSet
EndChar

StartChar: N
Encoding: 78 78 10
Width: 324
Flags: HW
LayerCount: 2
Fore
SplineSet
324 0 m 5
 240 0 l 5
 96 456 l 5
 96 0 l 5
 0 0 l 5
 0 768 l 5
 98.1455078125 768 l 5
 228 356.795898438 l 5
 228 768 l 5
 324 768 l 5
 324 0 l 5
EndSplineSet
EndChar

StartChar: O
Encoding: 79 79 11
Width: 348
Flags: HW
LayerCount: 2
Fore
SplineSet
250.192382812 8.416015625 m 4
 203.043945312 -18.8046875 144.956054688 -18.8046875 97.8076171875 8.416015625 c 4
 58.912109375 30.8720703125 31.904296875 69.3427734375 23.99609375 113.553710938 c 4
 -7.9990234375 292.430664062 -7.9990234375 475.567382812 23.99609375 654.446289062 c 4
 36.9921875 727.102539062 100.190429688 780 174 780 c 4
 247.809570312 780 311.0078125 727.102539062 324.00390625 654.446289062 c 4
 355.999023438 475.568359375 355.999023438 292.432617188 324.00390625 113.555664062 c 4
 316.096679688 69.34375 289.087890625 30.8720703125 250.192382812 8.416015625 c 4
202.192382812 91.5537109375 m 4
 184.747070312 81.482421875 163.252929688 81.482421875 145.807617188 91.5537109375 c 4
 131.416015625 99.86328125 121.422851562 114.09765625 118.497070312 130.455078125 c 4
 88.5009765625 298.153320312 88.5009765625 469.84375 118.497070312 637.543945312 c 4
 123.306640625 664.427734375 146.690429688 684 174 684 c 4
 201.310546875 684 224.694335938 664.427734375 229.502929688 637.54296875 c 4
 259.499023438 469.844726562 259.499023438 298.154296875 229.502929688 130.45703125 c 4
 226.577148438 114.098632812 216.583984375 99.86328125 202.192382812 91.5537109375 c 4
EndSplineSet
EndChar

StartChar: R
Encoding: 82 82 12
Width: 324
Flags: HW
LayerCount: 2
Fore
SplineSet
96 456 m 5
 96 672 l 5
 151.788085938 672 l 6
 185.150390625 672 214.142578125 649.081054688 221.84375 616.619140625 c 4
 230.051757812 582.018554688 230.05078125 545.979492188 221.84375 511.379882812 c 4
 214.142578125 478.918945312 185.149414062 456 151.788085938 456 c 6
 96 456 l 5
151.788085938 360 m 6
 96 360.000976562 l 5
 96 0.0009765625 l 5
 0 0.0009765625 l 5
 0 768.000976562 l 5
 151.788085938 768.000976562 l 6
 196.344726562 768.000976562 239.076171875 750.301757812 270.58203125 718.794921875 c 4
 292.600585938 696.77734375 308.06640625 669.072265625 315.252929688 638.774414062 c 4
 321.064453125 614.275390625 323.999023438 589.180664062 323.999023438 564.000976562 c 4
 323.999023438 538.8203125 321.063476562 513.725585938 315.252929688 489.2265625 c 4
 305.544921875 448.30078125 280.837890625 412.504882812 246.009765625 388.911132812 c 5
 323.651367188 0.0009765625 l 5
 226.10546875 0.0009765625 l 5
 154.216796875 360.018554688 l 6
 153.407226562 360.0078125 152.596679688 360 151.788085938 360 c 6
EndSplineSet
EndChar

StartChar: I
Encoding: 73 73 13
Width: 96
Flags: HW
LayerCount: 2
Fore
SplineSet
0 0 m 5
 0 768 l 5
 96 768 l 5
 96 0 l 5
 0 0 l 5
EndSplineSet
EndChar

StartChar: J
Encoding: 74 74 14
Width: 336
Flags: HW
LayerCount: 2
Fore
SplineSet
171.416992188 84.068359375 m 4
 209.923828125 85.75 240.276367188 117.45703125 240.276367188 156 c 6
 240.276367188 768 l 5
 336.276367188 768 l 5
 336.276367188 156 l 6
 336.276367188 66.06640625 265.453125 -7.9169921875 175.604492188 -11.83984375 c 4
 89.3798828125 -15.6044921875 14.330078125 46.5771484375 2 131.999023438 c 5
 97.015625 145.713867188 l 5
 102.299804688 109.104492188 134.463867188 82.455078125 171.416992188 84.068359375 c 4
EndSplineSet
EndChar

StartChar: K
Encoding: 75 75 15
Width: 336
Flags: HW
LayerCount: 2
Fore
SplineSet
336 0 m 5
 236.497070312 0 l 5
 135.380859375 370.90625 l 5
 96 288 l 5
 96 0 l 5
 0 0 l 5
 0 768 l 5
 96 768 l 5
 96 511.745117188 l 5
 217.720703125 768 l 5
 324 768 l 5
 198.599609375 504 l 5
 336 0 l 5
EndSplineSet
EndChar

StartChar: L
Encoding: 76 76 16
Width: 288
Flags: HW
LayerCount: 2
Fore
SplineSet
0 768 m 5
 96 768 l 5
 96 90 l 5
 288 90 l 5
 288 0 l 5
 0 0 l 5
 0 768 l 5
EndSplineSet
EndChar

StartChar: M
Encoding: 77 77 17
Width: 372
Flags: HW
LayerCount: 2
Fore
SplineSet
372 768 m 5
 372 0 l 5
 276 0 l 5
 276 456 l 5
 186 168 l 5
 96 456 l 5
 96 0 l 5
 0 0 l 5
 0 768 l 5
 99.0771484375 768 l 5
 186 489.846679688 l 5
 272.922851562 768 l 5
 372 768 l 5
EndSplineSet
EndChar

StartChar: zero
Encoding: 48 48 18
Width: 348
Flags: HWO
LayerCount: 2
Fore
SplineSet
250.192382812 8.416015625 m 4
 203.043945312 -18.8046875 144.956054688 -18.8046875 97.8076171875 8.416015625 c 4
 58.912109375 30.8720703125 31.904296875 69.3427734375 23.99609375 113.553710938 c 4
 -7.9990234375 292.430664062 -7.9990234375 475.567382812 23.99609375 654.446289062 c 4
 36.9921875 727.102539062 100.190429688 780 174 780 c 4
 247.809570312 780 311.0078125 727.102539062 324.00390625 654.446289062 c 4
 355.999023438 475.568359375 355.999023438 292.432617188 324.00390625 113.555664062 c 4
 316.096679688 69.34375 289.087890625 30.8720703125 250.192382812 8.416015625 c 4
202.192382812 91.5537109375 m 4
 184.747070312 81.482421875 163.252929688 81.482421875 145.807617188 91.5537109375 c 4
 131.416015625 99.86328125 121.422851562 114.09765625 118.497070312 130.455078125 c 4
 88.5009765625 298.153320312 88.5009765625 469.84375 118.497070312 637.543945312 c 4
 123.306640625 664.427734375 146.690429688 684 174 684 c 4
 201.310546875 684 224.694335938 664.427734375 229.502929688 637.54296875 c 4
 259.499023438 469.844726562 259.499023438 298.154296875 229.502929688 130.45703125 c 4
 226.577148438 114.098632812 216.583984375 99.86328125 202.192382812 91.5537109375 c 4
EndSplineSet
EndChar

StartChar: P
Encoding: 80 80 19
Width: 324
Flags: HW
LayerCount: 2
Fore
SplineSet
299.077148438 439.383789062 m 4
 272.991210938 376.780273438 211.821289062 336 144 336 c 6
 96 336 l 5
 96 0 l 5
 0 0 l 5
 0 768 l 5
 151.786132812 768 l 6
 219.735351562 768 280.994140625 727.068359375 306.998046875 664.291015625 c 4
 310.424804688 656.017578125 313.184570312 647.484375 315.252929688 638.770507812 c 4
 331.028320312 572.265625 325.365234375 502.475585938 299.077148438 439.383789062 c 4
210.4609375 476.306640625 m 4
 199.28125 449.4765625 173.065429688 432 144 432 c 6
 96 432 l 5
 96 672 l 5
 151.786132812 672 l 6
 180.907226562 672 207.161132812 654.458007812 218.305664062 627.552734375 c 4
 219.774414062 624.006835938 220.95703125 620.349609375 221.844726562 616.615234375 c 4
 232.9453125 569.81640625 228.9609375 520.705078125 210.4609375 476.306640625 c 4
EndSplineSet
EndChar

StartChar: Q
Encoding: 81 81 20
Width: 348
Flags: HW
LayerCount: 2
Fore
SplineSet
118.49609375 637.543945312 m 4
 123.305664062 664.427734375 146.689453125 684 173.999023438 684 c 4
 201.309570312 684 224.693359375 664.427734375 229.502929688 637.54296875 c 4
 259.036132812 472.428710938 259.494140625 303.424804688 230.857421875 138.154296875 c 5
 203.609375 178.380859375 l 5
 143.999023438 138 l 5
 180.32421875 84.35546875 l 5
 168.344726562 83.00390625 156.247070312 85.5263671875 145.806640625 91.5537109375 c 4
 131.415039062 99.86328125 121.421875 114.09765625 118.49609375 130.455078125 c 4
 88.5 298.153320312 88.5 469.84375 118.49609375 637.543945312 c 4
23.99609375 654.446289062 m 4
 36.9912109375 727.102539062 100.189453125 780 173.999023438 780 c 4
 247.80859375 780 311.006835938 727.102539062 324.002929688 654.446289062 c 4
 355.998046875 475.568359375 355.998046875 292.432617188 324.002929688 113.5546875 c 4
 319.573242188 88.7900390625 309.081054688 65.505859375 293.461914062 45.7822265625 c 5
 329.609375 -7.619140625 l 5
 269.998046875 -48 l 5
 236.508789062 1.4111328125 l 5
 191.836914062 -18.6826171875 140.227539062 -16.076171875 97.806640625 8.416015625 c 4
 58.9111328125 30.8720703125 31.9033203125 69.34375 23.99609375 113.553710938 c 4
 -7.9990234375 292.430664062 -7.9990234375 475.567382812 23.99609375 654.446289062 c 4
EndSplineSet
EndChar

StartChar: T
Encoding: 84 84 21
Width: 288
Flags: HW
LayerCount: 2
Fore
SplineSet
0 768 m 5
 288 768 l 5
 288 672 l 5
 192 672 l 5
 192 0 l 5
 96 0 l 5
 96 672 l 5
 0 672 l 5
 0 768 l 5
EndSplineSet
EndChar

StartChar: U
Encoding: 85 85 22
Width: 324
Flags: HW
LayerCount: 2
Fore
SplineSet
0 768 m 5
 96 768 l 5
 96 150 l 6
 96 126.419921875 108.580078125 104.631835938 129.000976562 92.841796875 c 4
 149.420898438 81.052734375 174.580078125 81.052734375 195.000976562 92.841796875 c 4
 215.420898438 104.631835938 228 126.420898438 228 150 c 6
 228 768 l 5
 324 768 l 5
 324 150 l 6
 324 92.123046875 293.123046875 38.642578125 243.000976562 9.7041015625 c 4
 192.877929688 -19.234375 131.123046875 -19.234375 81.0009765625 9.7041015625 c 4
 30.8779296875 38.642578125 0 92.123046875 0 150 c 6
 0 768 l 5
EndSplineSet
EndChar

StartChar: W
Encoding: 87 87 23
Width: 480
Flags: HW
CounterMasks: 1 e0
LayerCount: 2
Fore
SplineSet
198.67578125 768 m 5
 281.32421875 768 l 5
 342.971679688 398.118164062 l 5
 383.427734375 768 l 5
 480 768 l 5
 396 0 l 5
 312 0 l 5
 240 432 l 5
 168 0 l 5
 84 0 l 5
 0 768 l 5
 96.572265625 768 l 5
 137.028320312 398.1171875 l 5
 198.67578125 768 l 5
EndSplineSet
EndChar

StartChar: X
Encoding: 88 88 24
Width: 354
Flags: HW
LayerCount: 2
Fore
SplineSet
126.575195312 393.322265625 m 5
 5.9990234375 768 l 5
 106.84765625 768 l 5
 176.999023438 550.010742188 l 5
 247.151367188 768 l 5
 347.999023438 768 l 5
 227.423828125 393.322265625 l 5
 227.423828125 393.322265625 l 5
 354 0 l 5
 253.15234375 0 l 5
 176.999023438 236.634765625 l 5
 100.84765625 0 l 5
 0 0 l 5
 126.575195312 393.322265625 l 1029
EndSplineSet
EndChar

StartChar: Y
Encoding: 89 89 25
Width: 408
Flags: HW
LayerCount: 2
Fore
SplineSet
305.640625 768 m 5
 408 768 l 5
 252.000976562 348 l 5
 252.000976562 0 l 5
 156.000976562 0 l 5
 156.000976562 348 l 5
 0 768 l 5
 102.408203125 768 l 5
 204 494.484375 l 5
 305.640625 768 l 5
EndSplineSet
EndChar

StartChar: Z
Encoding: 90 90 26
Width: 324
Flags: HW
LayerCount: 2
Fore
SplineSet
98.400390625 96 m 5
 324 96 l 5
 324 0 l 5
 0 0 l 5
 0 108 l 5
 220.899414062 672 l 5
 18 672 l 5
 18 768 l 5
 324.000976562 768 l 5
 324 672 l 5
 98.400390625 96 l 5
EndSplineSet
EndChar

StartChar: one
Encoding: 49 49 27
Width: 156
Flags: HW
LayerCount: 2
Fore
SplineSet
0 719.982421875 m 5
 0 719.982421875 l 5
 30.59375 730.891601562 59.08203125 747.15625 84.076171875 768.00390625 c 5
 156.072265625 768 l 5
 156.072265625 0 l 5
 60.072265625 0 l 5
 60.072265625 660 l 5
 0.072265625 660 l 5
 0 719.982421875 l 5
EndSplineSet
EndChar

StartChar: two
Encoding: 50 50 28
Width: 324
Flags: HW
LayerCount: 2
Fore
SplineSet
96 618 m 5
 0 618 l 5
 0 707.469726562 72.5302734375 780 162 780 c 4
 251.470703125 780 324 707.469726562 324 618 c 4
 324 538.188476562 295.3671875 461.173828125 243.635742188 400.3984375 c 4
 169.436523438 313.235351562 121.185546875 207.810546875 103.53125 96.0009765625 c 5
 312 96 l 5
 312 0 l 5
 0 0 l 5
 -0.0009765625 169.533203125 60.4521484375 333.530273438 170.532226562 462.624023438 c 4
 207.627929688 505.982421875 228 561.061523438 228 618 c 4
 228 654.450195312 198.451171875 684 162 684 c 4
 125.549804688 684 96 654.450195312 96 618 c 5
EndSplineSet
EndChar

StartChar: three
Encoding: 51 51 29
Width: 324
Flags: HW
LayerCount: 2
Fore
SplineSet
235.703125 9.0517578125 m 4
 187.0859375 -19.017578125 127.186523438 -19.017578125 78.5693359375 9.0517578125 c 4
 29.9521484375 37.12109375 0.001953125 88.9951171875 0.001953125 145.133789062 c 5
 96.001953125 145.133789062 l 5
 96.001953125 123.29296875 107.654296875 103.111328125 126.569335938 92.1904296875 c 4
 145.484375 81.26953125 168.788085938 81.26953125 187.703125 92.1904296875 c 4
 201.5390625 100.178710938 211.697265625 113.265625 216.004882812 128.649414062 c 4
 236.430664062 201.607421875 230.642578125 279.416992188 199.647460938 348.549804688 c 4
 189.974609375 370.12109375 168.538085938 384.002929688 144.8984375 384.002929688 c 6
 141.6171875 384 l 5
 108.000976562 384 l 5
 108.000976562 480 l 5
 141.6171875 480 l 6
 168.9765625 480 192.870117188 498.5078125 199.711914062 524.998046875 c 4
 208.720703125 559.890625 211.84765625 596.041992188 208.958984375 631.962890625 c 4
 208.28515625 640.331054688 205.758789062 648.444335938 201.561523438 655.71484375 c 4
 191.456054688 673.217773438 172.780273438 684 152.5703125 684 c 4
 121.328125 684 96 658.672851562 96 627.4296875 c 5
 0 627.4296875 l 5
 0 711.692382812 68.30859375 780 152.5703125 780 c 4
 207.078125 780 257.446289062 750.920898438 284.700195312 703.71484375 c 4
 296.020507812 684.106445312 302.834960938 662.224609375 304.649414062 639.65625 c 4
 308.393554688 593.091796875 304.34375 546.229492188 292.663085938 500.998046875 c 4
 286.159179688 475.80859375 273.458007812 452.646484375 255.759765625 433.666015625 c 5
 268.948242188 420.423828125 279.599609375 404.879882812 287.247070312 387.822265625 c 4
 327.424804688 298.206054688 334.926757812 197.34375 308.44921875 102.768554688 c 4
 297.377929688 63.2236328125 271.266601562 29.5849609375 235.703125 9.0517578125 c 4
EndSplineSet
EndChar

StartChar: four
Encoding: 52 52 30
Width: 372
Flags: HW
LayerCount: 2
Fore
SplineSet
0 192 m 5
 0 288 l 5
 228 768 l 5
 336 768 l 5
 336 282 l 5
 372 282 l 5
 372 192 l 5
 336 192 l 5
 336 0 l 5
 240 0 l 5
 240 192 l 5
 0 192 l 5
96.787109375 282 m 5
 240 583.5 l 1029
96.787109375 282 m 5
 240 282 l 5
 240 583.5 l 1029
EndSplineSet
EndChar

StartChar: five
Encoding: 53 53 31
Width: 324
Flags: HW
LayerCount: 2
Fore
SplineSet
300.001953125 672 m 5
 116.954101562 672 l 5
 111.647460938 507.95703125 l 5
 127.587890625 513.284179688 144.28515625 516 161.09375 516 c 4
 216.826171875 516 268.326171875 486.266601562 296.193359375 438 c 4
 303.858398438 424.723632812 309.524414062 410.390625 313.008789062 395.461914062 c 4
 336.713867188 293.8984375 321.784179688 187.1484375 271.124023438 95.9853515625 c 4
 234.083007812 29.330078125 163.8203125 -12.0068359375 87.564453125 -12.0068359375 c 4
 52.8095703125 -12.0068359375 18.5986328125 -3.3818359375 -12 13.095703125 c 5
 33.5146484375 97.6201171875 l 5
 50.1259765625 88.67578125 68.697265625 83.9931640625 87.564453125 83.9931640625 c 4
 128.959960938 83.9931640625 167.1015625 106.43359375 187.209960938 142.6171875 c 4
 226.291015625 212.943359375 237.80859375 295.293945312 219.521484375 373.642578125 c 4
 218.180664062 379.383789062 216.001953125 384.89453125 213.0546875 390 c 4
 202.3359375 408.563476562 182.529296875 420 161.09375 420 c 4
 140.838867188 420 121.951171875 409.78125 110.935546875 392.913085938 c 5
 12.001953125 396 l 5
 24.001953125 768 l 5
 300.001953125 768 l 5
 300.001953125 672 l 5
EndSplineSet
EndChar

StartChar: six
Encoding: 54 54 32
Width: 324
Flags: HW
LayerCount: 2
Fore
SplineSet
102.083984375 307.99609375 m 5
 106.33203125 337.83203125 131.877929688 360 162.013671875 360 c 4
 192.149414062 360 217.6953125 337.833007812 221.942382812 307.998046875 c 4
 230.036132812 250.959960938 230.036132812 193.064453125 221.942382812 136.026367188 c 4
 219.330078125 117.606445312 208.389648438 101.412109375 192.278320312 92.109375 c 4
 173.548828125 81.296875 150.474609375 81.296875 131.74609375 92.109375 c 4
 115.633789062 101.412109375 104.694335938 117.607421875 102.080078125 136.028320312 c 4
 93.986328125 193.064453125 93.986328125 250.958007812 102.080078125 307.99609375 c 5
 102.083984375 307.99609375 l 5
240.280273438 8.9716796875 m 5
 191.848632812 -18.990234375 132.178710938 -18.990234375 83.748046875 8.9716796875 c 4
 42.08203125 33.02734375 13.79296875 74.908203125 7.0341796875 122.54296875 c 4
 -28.5546875 373.372070312 72.591796875 624.1015625 272.267578125 780.0234375 c 5
 331.350585938 704.358398438 l 5
 247.633789062 638.985351562 182.373046875 552.950195312 141.991210938 454.713867188 c 5
 148.635742188 455.571289062 155.322265625 456 162.013671875 456 c 4
 239.95703125 456 306.025390625 398.655273438 316.989257812 321.48828125 c 4
 326.353515625 255.502929688 326.353515625 188.526367188 316.989257812 122.540039062 c 4
 310.23046875 74.9052734375 281.943359375 33.0263671875 240.278320312 8.9716796875 c 5
 240.280273438 8.9716796875 l 5
EndSplineSet
EndChar

StartChar: seven
Encoding: 55 55 33
Width: 324
Flags: HW
LayerCount: 2
Fore
SplineSet
324 768 m 5
 323.993164062 671.99609375 l 5
 225.453125 461.671875 174.377929688 232.256835938 174.377929688 0 c 5
 78.3779296875 0 l 5
 78.3779296875 231.266601562 126.125976562 460.04296875 218.6328125 672.000976562 c 5
 0 672 l 5
 0 768 l 5
 324 768 l 5
EndSplineSet
EndChar

StartChar: eight
Encoding: 56 56 34
Width: 324
Flags: HW
LayerCount: 2
Fore
SplineSet
311.999023438 564 m 5
 311.999023438 552 l 1029
185.90234375 462.405273438 m 4
 171.111328125 453.865234375 152.887695312 453.865234375 138.096679688 462.405273438 c 4
 126.624023438 469.028320312 118.415039062 480.114257812 115.426757812 493.018554688 c 4
 102.612304688 548.341796875 106.44140625 606.219726562 126.431640625 659.375976562 c 4
 132.001953125 674.190429688 146.171875 684 161.999023438 684 c 4
 177.826171875 684 191.99609375 674.189453125 197.567382812 659.375 c 4
 217.556640625 606.221679688 221.385742188 548.344726562 208.572265625 493.020507812 c 4
 205.583007812 480.114257812 197.374023438 469.028320312 185.90234375 462.405273438 c 4
258.416992188 23.09375 m 4
 202.654296875 -23.697265625 121.344726562 -23.697265625 65.5810546875 23.09375 c 4
 42.8623046875 42.1572265625 26.3046875 67.52734375 17.9990234375 96 c 4
 -6 178.286132812 -6 265.712890625 17.9990234375 347.999023438 c 4
 24.7177734375 371.033203125 36.8623046875 392.119140625 53.3740234375 409.55078125 c 5
 37.9814453125 427.326171875 27.1904296875 448.5234375 21.9013671875 471.358398438 c 4
 4.8173828125 545.123046875 9.921875 622.293945312 36.5751953125 693.16796875 c 4
 56.2216796875 745.408203125 106.188476562 780 161.999023438 780 c 4
 217.810546875 780 267.778320312 745.407226562 287.422851562 693.166992188 c 4
 314.075195312 622.293945312 319.180664062 545.124023438 302.096679688 471.359375 c 4
 296.807617188 448.5234375 286.016601562 427.326171875 270.690429688 409.48046875 c 5
 287.202148438 392.00390625 299.298828125 370.970703125 305.998046875 348 c 4
 329.998046875 265.713867188 329.998046875 178.286132812 305.998046875 96 c 4
 297.6953125 67.5283203125 281.137695312 42.1572265625 258.416992188 23.09375 c 4
196.708984375 96.6337890625 m 5
 176.634765625 79.7890625 147.36328125 79.7890625 127.288085938 96.6337890625 c 4
 119.109375 103.497070312 113.147460938 112.630859375 110.158203125 122.880859375 c 4
 91.279296875 187.611328125 91.279296875 256.387695312 110.158203125 321.119140625 c 4
 114.053710938 334.474609375 122.951171875 345.810546875 134.998046875 352.765625 c 4
 151.706054688 362.411132812 172.290039062 362.411132812 188.998046875 352.765625 c 4
 201.043945312 345.810546875 209.942382812 334.474609375 213.836914062 321.120117188 c 4
 232.717773438 256.387695312 232.717773438 187.611328125 213.836914062 122.880859375 c 4
 210.848632812 112.630859375 204.887695312 103.497070312 196.708007812 96.6337890625 c 5
 196.708984375 96.6337890625 l 5
EndSplineSet
EndChar

StartChar: nine
Encoding: 57 57 35
Width: 324
Flags: HW
LayerCount: 2
Fore
SplineSet
222.266601562 459.999023438 m 5
 218.018554688 430.163085938 192.47265625 407.995117188 162.336914062 407.995117188 c 4
 132.201171875 407.995117188 106.655273438 430.162109375 102.408203125 459.997070312 c 4
 94.314453125 517.03515625 94.314453125 574.930664062 102.408203125 631.96875 c 4
 105.020507812 650.388671875 115.9609375 666.583007812 132.072265625 675.885742188 c 4
 150.801757812 686.698242188 173.875976562 686.698242188 192.604492188 675.885742188 c 4
 208.716796875 666.583007812 219.65625 650.387695312 222.270507812 631.966796875 c 4
 230.364257812 574.930664062 230.364257812 517.037109375 222.270507812 459.999023438 c 5
 222.266601562 459.999023438 l 5
84.0703125 759.0234375 m 5
 132.501953125 786.985351562 192.171875 786.985351562 240.602539062 759.0234375 c 4
 282.268554688 734.967773438 310.557617188 693.086914062 317.31640625 645.452148438 c 4
 352.905273438 394.623046875 251.758789062 143.893554688 52.0830078125 -12.0283203125 c 5
 -7 63.63671875 l 5
 76.716796875 129.009765625 141.977539062 215.044921875 182.359375 313.28125 c 5
 175.71484375 312.423828125 169.028320312 311.995117188 162.336914062 311.995117188 c 4
 84.3935546875 311.995117188 18.3251953125 369.33984375 7.361328125 446.506835938 c 4
 -2.0029296875 512.4921875 -2.0029296875 579.46875 7.361328125 645.455078125 c 4
 14.1201171875 693.08984375 42.4072265625 734.96875 84.072265625 759.0234375 c 5
 84.0703125 759.0234375 l 5
EndSplineSet
EndChar
